<mxfile host="65bd71144e">
    <diagram id="K9PI0Q5CaQraI51D77xE" name="페이지-1">
        <mxGraphModel dx="1811" dy="2028" grid="1" gridSize="10" guides="1" tooltips="1" connect="1" arrows="1" fold="1" page="1" pageScale="1" pageWidth="827" pageHeight="1169" math="0" shadow="0">
            <root>
                <mxCell id="0"/>
                <mxCell id="1" parent="0"/>
                <mxCell id="9" value="cucury-routin DB" style="shape=umlFrame;whiteSpace=wrap;html=1;width=130;height=20;" parent="1" vertex="1">
                    <mxGeometry x="1110" y="210" width="190" height="490" as="geometry"/>
                </mxCell>
                <mxCell id="8" value="cucury-routine-backend" style="shape=umlFrame;whiteSpace=wrap;html=1;width=150;height=20;" parent="1" vertex="1">
                    <mxGeometry x="790" y="210" width="300" height="490" as="geometry"/>
                </mxCell>
                <mxCell id="6" value="frontend" style="shape=umlFrame;whiteSpace=wrap;html=1;" parent="1" vertex="1">
                    <mxGeometry x="180" y="-140" width="590" height="840" as="geometry"/>
                </mxCell>
                <mxCell id="5" value="add diary" style="edgeStyle=none;html=1;startArrow=classic;startFill=1;exitX=1.013;exitY=0.507;exitDx=0;exitDy=0;exitPerimeter=0;" parent="1" source="36" target="7" edge="1">
                    <mxGeometry relative="1" as="geometry">
                        <mxPoint x="380" y="280" as="targetPoint"/>
                    </mxGeometry>
                </mxCell>
                <mxCell id="37" value="" style="edgeStyle=none;html=1;" edge="1" parent="1" source="2" target="36">
                    <mxGeometry relative="1" as="geometry"/>
                </mxCell>
                <mxCell id="2" value="Diary&lt;br&gt;Page" style="shape=umlBoundary;whiteSpace=wrap;html=1;" parent="1" vertex="1">
                    <mxGeometry x="490" y="240" width="100" height="80" as="geometry"/>
                </mxCell>
                <mxCell id="34" value="access login page" style="edgeStyle=none;html=1;startArrow=none;startFill=0;entryX=-0.007;entryY=0.472;entryDx=0;entryDy=0;entryPerimeter=0;" parent="1" source="3" target="14" edge="1">
                    <mxGeometry relative="1" as="geometry">
                        <mxPoint x="180" y="87" as="targetPoint"/>
                        <Array as="points"/>
                    </mxGeometry>
                </mxCell>
                <mxCell id="3" value="user" style="shape=umlActor;verticalLabelPosition=bottom;verticalAlign=top;html=1;" parent="1" vertex="1">
                    <mxGeometry x="40" y="40" width="30" height="60" as="geometry"/>
                </mxCell>
                <mxCell id="11" value="insert diary" style="edgeStyle=none;html=1;startArrow=classic;startFill=1;" parent="1" source="7" target="12" edge="1">
                    <mxGeometry relative="1" as="geometry">
                        <mxPoint x="980" y="280" as="targetPoint"/>
                    </mxGeometry>
                </mxCell>
                <mxCell id="7" value="Add Diary" style="ellipse;shape=umlControl;whiteSpace=wrap;html=1;" parent="1" vertex="1">
                    <mxGeometry x="830" y="240" width="70" height="80" as="geometry"/>
                </mxCell>
                <mxCell id="12" value="diary" style="ellipse;shape=umlEntity;whiteSpace=wrap;html=1;" parent="1" vertex="1">
                    <mxGeometry x="1170" y="240" width="80" height="80" as="geometry"/>
                </mxCell>
                <mxCell id="13" value="Auth Server" style="shape=umlFrame;whiteSpace=wrap;html=1;width=87;height=20;" parent="1" vertex="1">
                    <mxGeometry x="790" y="-140" width="300" height="250" as="geometry"/>
                </mxCell>
                <mxCell id="18" value="sign up from user" style="edgeStyle=none;html=1;startArrow=none;startFill=0;entryX=-0.018;entryY=0.501;entryDx=0;entryDy=0;entryPerimeter=0;" parent="1" source="14" target="15" edge="1">
                    <mxGeometry relative="1" as="geometry">
                        <mxPoint x="250" y="180" as="targetPoint"/>
                        <Array as="points">
                            <mxPoint x="250" y="-70"/>
                        </Array>
                    </mxGeometry>
                </mxCell>
                <mxCell id="23" value="received jwt token" style="edgeStyle=none;html=1;startArrow=none;startFill=0;entryX=-0.051;entryY=0.523;entryDx=0;entryDy=0;entryPerimeter=0;exitX=0.964;exitY=0.273;exitDx=0;exitDy=0;exitPerimeter=0;" parent="1" source="14" target="19" edge="1">
                    <mxGeometry relative="1" as="geometry">
                        <mxPoint x="300" y="56" as="sourcePoint"/>
                        <mxPoint x="380" y="60" as="targetPoint"/>
                    </mxGeometry>
                </mxCell>
                <mxCell id="14" value="Login Page" style="shape=umlBoundary;whiteSpace=wrap;html=1;" parent="1" vertex="1">
                    <mxGeometry x="200" y="30" width="100" height="80" as="geometry"/>
                </mxCell>
                <mxCell id="29" value="request to auth server for signup" style="edgeStyle=none;html=1;startArrow=classic;startFill=1;" parent="1" source="15" target="26" edge="1">
                    <mxGeometry relative="1" as="geometry"/>
                </mxCell>
                <mxCell id="58" value="received jwt token&amp;nbsp;" style="edgeStyle=none;html=1;startArrow=none;startFill=0;entryX=0.054;entryY=0.319;entryDx=0;entryDy=0;entryPerimeter=0;" edge="1" parent="1" source="15" target="19">
                    <mxGeometry relative="1" as="geometry">
                        <mxPoint x="380" y="50" as="targetPoint"/>
                        <Array as="points">
                            <mxPoint x="380" y="36"/>
                        </Array>
                    </mxGeometry>
                </mxCell>
                <mxCell id="15" value="Signup Page" style="shape=umlBoundary;whiteSpace=wrap;html=1;" parent="1" vertex="1">
                    <mxGeometry x="330" y="-110" width="100" height="80" as="geometry"/>
                </mxCell>
                <mxCell id="33" value="" style="edgeStyle=none;html=1;startArrow=none;startFill=0;" parent="1" source="16" target="2" edge="1">
                    <mxGeometry relative="1" as="geometry"/>
                </mxCell>
                <mxCell id="16" value="cucury-routine&lt;br&gt;Home" style="shape=umlBoundary;whiteSpace=wrap;html=1;" parent="1" vertex="1">
                    <mxGeometry x="330" y="240" width="100" height="80" as="geometry"/>
                </mxCell>
                <mxCell id="25" value="select user" style="edgeStyle=none;html=1;startArrow=classic;startFill=1;entryX=-0.067;entryY=0.376;entryDx=0;entryDy=0;entryPerimeter=0;" parent="1" source="19" target="21" edge="1">
                    <mxGeometry relative="1" as="geometry">
                        <mxPoint x="969.9999999999927" y="40" as="targetPoint"/>
                    </mxGeometry>
                </mxCell>
                <mxCell id="32" value="redirect to home" style="edgeStyle=none;html=1;startArrow=none;startFill=0;entryX=0.594;entryY=-0.036;entryDx=0;entryDy=0;entryPerimeter=0;exitX=0.993;exitY=0.625;exitDx=0;exitDy=0;exitPerimeter=0;" parent="1" target="16" edge="1" source="14">
                    <mxGeometry relative="1" as="geometry">
                        <mxPoint x="680" y="80" as="sourcePoint"/>
                        <mxPoint x="715" y="170" as="targetPoint"/>
                        <Array as="points">
                            <mxPoint x="389" y="80"/>
                        </Array>
                    </mxGeometry>
                </mxCell>
                <mxCell id="19" value="login" style="ellipse;shape=umlControl;whiteSpace=wrap;html=1;" parent="1" vertex="1">
                    <mxGeometry x="820" y="10" width="70" height="80" as="geometry"/>
                </mxCell>
                <mxCell id="20" value="cucury-id DB" style="shape=umlFrame;whiteSpace=wrap;html=1;width=130;height=20;" parent="1" vertex="1">
                    <mxGeometry x="1110" y="-140" width="190" height="250" as="geometry"/>
                </mxCell>
                <mxCell id="21" value="user" style="ellipse;shape=umlEntity;whiteSpace=wrap;html=1;" parent="1" vertex="1">
                    <mxGeometry x="1170" y="20" width="80" height="80" as="geometry"/>
                </mxCell>
                <mxCell id="28" value="insert user" style="edgeStyle=none;html=1;startArrow=classic;startFill=1;entryX=0.5;entryY=0;entryDx=0;entryDy=0;" parent="1" source="26" target="21" edge="1">
                    <mxGeometry x="0.0027" relative="1" as="geometry">
                        <mxPoint x="969.9999999999927" y="150" as="targetPoint"/>
                        <Array as="points">
                            <mxPoint x="920" y="-70"/>
                            <mxPoint x="1210" y="-70"/>
                        </Array>
                        <mxPoint as="offset"/>
                    </mxGeometry>
                </mxCell>
                <mxCell id="30" value="" style="edgeStyle=none;html=1;startArrow=none;startFill=0;" parent="1" source="26" target="19" edge="1">
                    <mxGeometry relative="1" as="geometry"/>
                </mxCell>
                <mxCell id="26" value="signup" style="ellipse;shape=umlControl;whiteSpace=wrap;html=1;" parent="1" vertex="1">
                    <mxGeometry x="820" y="-110" width="70" height="80" as="geometry"/>
                </mxCell>
                <mxCell id="51" value="update diary" style="edgeStyle=none;html=1;startArrow=classic;startFill=1;exitX=0.919;exitY=0.806;exitDx=0;exitDy=0;exitPerimeter=0;" edge="1" parent="1" source="36" target="40">
                    <mxGeometry relative="1" as="geometry">
                        <mxPoint x="680" y="400" as="targetPoint"/>
                        <Array as="points">
                            <mxPoint x="810" y="304"/>
                            <mxPoint x="810" y="400"/>
                        </Array>
                    </mxGeometry>
                </mxCell>
                <mxCell id="54" value="get diary" style="edgeStyle=none;html=1;startArrow=classic;startFill=1;entryX=0.075;entryY=0.361;entryDx=0;entryDy=0;entryPerimeter=0;exitX=0.774;exitY=1;exitDx=0;exitDy=0;exitPerimeter=0;" edge="1" parent="1" source="36" target="43">
                    <mxGeometry relative="1" as="geometry">
                        <mxPoint x="680" y="400" as="targetPoint"/>
                        <Array as="points">
                            <mxPoint x="800" y="320"/>
                            <mxPoint x="800" y="510"/>
                        </Array>
                    </mxGeometry>
                </mxCell>
                <mxCell id="56" value="get diary list" style="edgeStyle=none;html=1;startArrow=classic;startFill=1;exitX=0.552;exitY=1.014;exitDx=0;exitDy=0;exitPerimeter=0;entryX=0.011;entryY=0.583;entryDx=0;entryDy=0;entryPerimeter=0;" edge="1" parent="1" source="2" target="46">
                    <mxGeometry relative="1" as="geometry">
                        <mxPoint x="680" y="400" as="targetPoint"/>
                        <Array as="points">
                            <mxPoint x="545" y="360"/>
                            <mxPoint x="750" y="360"/>
                            <mxPoint x="750" y="657"/>
                        </Array>
                    </mxGeometry>
                </mxCell>
                <mxCell id="36" value="Diary&lt;br&gt;Detail&lt;br&gt;Page" style="shape=umlBoundary;whiteSpace=wrap;html=1;" vertex="1" parent="1">
                    <mxGeometry x="630" y="240" width="100" height="80" as="geometry"/>
                </mxCell>
                <mxCell id="39" value="update diary" style="edgeStyle=none;html=1;startArrow=classic;startFill=1;" edge="1" source="40" target="41" parent="1">
                    <mxGeometry relative="1" as="geometry">
                        <mxPoint x="980" y="400" as="targetPoint"/>
                    </mxGeometry>
                </mxCell>
                <mxCell id="40" value="Update&lt;br&gt;Diary" style="ellipse;shape=umlControl;whiteSpace=wrap;html=1;" vertex="1" parent="1">
                    <mxGeometry x="830" y="360" width="70" height="80" as="geometry"/>
                </mxCell>
                <mxCell id="41" value="diary" style="ellipse;shape=umlEntity;whiteSpace=wrap;html=1;" vertex="1" parent="1">
                    <mxGeometry x="1170" y="360" width="80" height="80" as="geometry"/>
                </mxCell>
                <mxCell id="42" value="select diary by user info and diary id" style="edgeStyle=none;html=1;startArrow=classic;startFill=1;" edge="1" source="43" target="44" parent="1">
                    <mxGeometry relative="1" as="geometry">
                        <mxPoint x="980" y="520" as="targetPoint"/>
                    </mxGeometry>
                </mxCell>
                <mxCell id="43" value="Get Diary&lt;br&gt;By Id" style="ellipse;shape=umlControl;whiteSpace=wrap;html=1;" vertex="1" parent="1">
                    <mxGeometry x="830" y="480" width="70" height="80" as="geometry"/>
                </mxCell>
                <mxCell id="44" value="diary" style="ellipse;shape=umlEntity;whiteSpace=wrap;html=1;" vertex="1" parent="1">
                    <mxGeometry x="1170" y="480" width="80" height="80" as="geometry"/>
                </mxCell>
                <mxCell id="45" value="select diary by user info" style="edgeStyle=none;html=1;startArrow=classic;startFill=1;" edge="1" source="46" target="47" parent="1">
                    <mxGeometry relative="1" as="geometry">
                        <mxPoint x="980" y="650" as="targetPoint"/>
                    </mxGeometry>
                </mxCell>
                <mxCell id="46" value="Get All Diary" style="ellipse;shape=umlControl;whiteSpace=wrap;html=1;" vertex="1" parent="1">
                    <mxGeometry x="830" y="610" width="70" height="80" as="geometry"/>
                </mxCell>
                <mxCell id="47" value="diary" style="ellipse;shape=umlEntity;whiteSpace=wrap;html=1;" vertex="1" parent="1">
                    <mxGeometry x="1170" y="610" width="80" height="80" as="geometry"/>
                </mxCell>
            </root>
        </mxGraphModel>
    </diagram>
</mxfile>